<svg xmlns="http://www.w3.org/2000/svg" viewBox="211 177 423 473">
  <path d="m490.02,527.8c-6.13,27.49-12.43,55.46-24.4,81.12-8.23,17.64-24.25,44.55-47.48,39.69-21.65-4.53-32.23-33.61-38.36-52.04-8.72-26.22-13.5-53.72-16.38-81.14-35.62,13.63-71.78,28.32-110.32,30.35-14.77.78-33-2.97-39.27-18.14-6.52-15.78,3.66-34.62,12.12-47.6,9.33,7.31,12.47,7.43,6.96,17.57-4.59,8.46-11.79,19.37-5.75,28.91,11.71,18.49,52.87,8.28,69.74,4.9,13.38-2.68,26.59-6.21,39.58-10.4,9.02-2.91,22.85-4.33,25.8-14,2.66-8.71-2.01-26.39-2.66-35.66-.88-12.36-12.6-15.37-22.3-21.83-7.49-4.99-21.73-20.65-30.77-20.84-7.61-.16-21.01,15.14-27.1,19.8-3.8,2.91-5.12,5.02-9.12,3.52.24.09-9.64-8.9-9.78-9.59-1.91-9.12,20.47-18.29,24.42-24.86,4.96-8.27-9.76-15.65-15.85-21.24-9.38-8.6-18.22-17.77-26.67-27.28-14.1-15.86-36.49-42.82-29.61-65.8,7.74-25.84,40.92-22.25,61.8-18.94,30.55,4.85,60.04,16.65,88.59,28.13,3.99-29.12,8.09-58.39,18.35-86.1,5.84-15.79,23.38-58.5,47.75-46.1-5.27,11.82-16.28,11.51-24.13,20.62-9.3,10.8-14.63,25.86-19.65,38.98-5.9,15.43-10.26,31.12-13.88,47.23-1.2,5.35-6.81,19.53-4.75,24.93,1.9,4.99,9.49,6.16,14.27,8.31,7.27,3.26,14.3,7.06,21.58,10.28,8.91,3.94,11.67,2.65,20.53-1.84,7.22-3.66,14.54-7.12,21.94-10.4,5.28-2.34,17.25-4.95,20.96-9.03,6.38-7.02-1.38-30.81-3.09-39.68-3.02-15.59-9.56-30.61-12.36-46.05,7.84-3,12.14-7.4,16.96.15,4.55,7.12,6.94,17.57,9.45,25.62,2.51,8.07,4.72,16.28,6.98,24.41,1.67,6,1.78,14.46,4.44,19.95,3.49,7.23,3.52,5.44,11.59,3.06,8.79-2.59,17.39-5.76,26.26-8.13,18.76-5.03,38.99-9.22,58.46-9.51,14.18-.22,34.29,1.39,43.56,13.86,10.45,14.07,2.73,32.47-5.77,45.37-10.01,15.2-23.7,28.83-37.16,40.97-13.14,11.85-31.04,21.34-42.63,34.5,8.79,9.36,21.49,16.33,31.33,24.8,8.96,7.72,17.89,15.57,26.2,24,14.96,15.16,37.9,39.44,32.13,62.95-5.86,23.85-38.63,23.98-58.13,22.13-27.29-2.6-54.52-9.54-80.14-19.16-1.12-.42-2.39-.43-4.22-.74Zm12.17-139.93c3.71-1.58,15.81,8.8,19.08,10.98,4.44,2.95,11.88,11.95,17.31,11.91,8.81-.07,25.46-19.82,31.5-25.34,13.06-11.93,25.3-24.82,35.52-39.29,7.01-9.92,21.98-28.77,15.5-41.6-7.15-14.15-32.36-10.34-44.71-8.42-18.38,2.85-36.18,8.01-53.66,14.27-6.6,2.36-20.25,4.7-25.35,9.38-5.8,5.32-3.05,11.89-2.27,19.73.86,8.7,1.61,17.42,2.34,26.14.53,6.32-1.08,17.63,4.59,22.14-6.88-.41-2.85,19.59-2.81,23.59.04,4.1-3.82,28.04.77,30.07-4.74,14.26-3.13,32.3-4.7,47.32-.51,4.93-3.35,13.63-.41,17.94,2.28,3.33,13.88,5.66,17.28,6.97,26.34,10.17,59.47,22.91,88.22,19.74,65.51-7.21-43.12-103.48-61.3-117.2-6.82,4.3-13.11,9.45-19.88,13.87-4.24,2.76-13.84,11.62-19.07,11.27-.16-6.79,30.21-21.16,35.23-27.88-9.39-7.42-27.13-15.3-33.18-25.57Zm-245.26-96.72c-4.93.68-11.28,1.06-17.39,2.48-13.34,3.11-17.58,12.35-12.5,25,6.3,15.69,17.77,27.47,29.13,39.29,14.07,14.65,30.23,26.92,46.19,39.4,2.6,2.03,4.52,2.35,7.38.32,15.69-11.11,31.31-22.35,47.67-32.49,1.97-1.22,2.34-2.89,2.21-4.92-.81-12.32,1.73-24.44,2.56-36.66.54-7.95,1.41-7.09-6.73-10.15-16.66-6.26-33.58-11.73-51.01-15.55-15.24-3.34-30.58-5.74-47.5-6.74Zm110.27,225.96c.8,9.33,3.18,19.54,5.57,29.71,6.15,26.13,15.39,66.7,37.45,84.41,25.79,20.71,41.66-29.71,46.78-47.22,4.84-16.54,7.74-33.58,10.19-50.62.79-5.47,2.75-10.98-1.37-15.28-4.07-4.25-14.09-5.83-19.52-8.19-7.19-3.13-14.3-6.47-21.27-10.06-9.55-4.92-12.74-7.3-22.77-2.56-6.18,2.92-36.05,12.96-35.05,19.81Zm-41.01-102.36c.95.49,1.99.87,2.85,1.5,22.57,16.6,47.05,30.68,71.41,44.45,11.59,6.55,23.35,12.71,35.32,18.53,5.22,2.54,30.92,18.9,35.29,15.75,4.06-2.93,2.77-28.44,3.14-34.04,1-15.23,1.17-30.56,1.17-45.83,0-28.13-1.68-56.15-3.42-84.22-51.53,23.37-99.45,50.58-145.76,83.86Zm35.4,50.13c.76,15.93,2.38,30.51,4.57,45.34,14.79-5.29,28.2-11.86,41.97-18.3-15.1-9.49-31.17-16.66-46.54-27.04Zm46.15-129.02c-14.39-6.88-27.39-13.59-41.9-18.15-1.4,15.34-3.83,29.72-4.13,45.16,14.77-10.13,30.37-17.18,46.03-27.01Z"/>
  <path d="m265.81,465.3c.21,16.3-20.68,23.4-30.98,11.3-9.71-11.4-1.37-28.68,13.45-28.88,9.83-.13,17.4,7.46,17.53,17.58Z"/>
  <path d="m449.96,179.8c14.92.09,23.01,19.07,12.12,29.75-10.81,10.6-30.06,2.69-30.05-12.4,0-10.62,7.03-17.41,17.94-17.35Z"/>
  <path d="m422.38,455.54c-38.39,2.05-54.79-48.79-27.97-73.29,26.63-24.33,70.78-3.78,71.11,31.53.22,24.14-19.74,42.43-43.13,41.76Z"/>
</svg>